<svg width="193" height="34" viewBox="0 0 193 34" fill="none" xmlns="http://www.w3.org/2000/svg">
<g clip-path="url(#clip0_323_7321)">
<path d="M0.00108523 16.3292C-0.00166383 16.2858 -0.00166383 16.2423 0.00108523 16.1989C0.00108523 16.0797 0.00108523 15.9633 0.00108523 15.8442C0.00108523 15.725 0.014287 15.567 0.0222081 15.4201C0.043331 14.9933 0.0776557 14.5887 0.117261 14.1591L0.164788 13.749C0.214955 13.3388 0.278323 12.9176 0.344332 12.5296C0.410341 12.1416 0.489552 11.7702 0.574044 11.3933C0.608369 11.2436 0.645334 11.094 0.682299 10.9443L0.793194 10.6145L0.84072 10.4344C0.875045 10.3097 0.90937 10.1905 0.946335 10.0685L1.04403 9.74983C1.11796 9.50317 1.19981 9.27037 1.28166 9.02926C1.36351 8.78815 1.43216 8.61909 1.50873 8.41955C1.56682 8.26989 1.63019 8.12024 1.69092 7.97058C1.81237 7.67404 1.95495 7.38858 2.07641 7.10313C2.14242 6.95901 2.21371 6.82599 2.28764 6.6791C2.65668 5.95999 3.07495 5.26995 3.53917 4.6144C3.67383 4.42872 3.80321 4.24857 3.94579 4.07398C4.08837 3.89938 4.25999 3.68598 4.42105 3.50029C4.58211 3.31461 4.74846 3.14001 4.91744 2.96541C5.08642 2.79081 5.25805 2.63007 5.44551 2.46933C5.63298 2.30859 5.79932 2.15893 5.97358 2.01482C6.2165 1.82359 6.46205 1.64622 6.71289 1.47439L6.97692 1.31365C7.05877 1.26099 7.14062 1.21388 7.22248 1.16399C7.30433 1.11411 7.42314 1.05037 7.52084 1.00048C7.61853 0.950594 7.67926 0.914566 7.75583 0.881309L7.78751 0.86468C7.90953 0.799722 8.03468 0.741445 8.16244 0.690082C8.33498 0.610601 8.51123 0.540303 8.69052 0.479454C8.83046 0.429569 8.9704 0.379683 9.11033 0.340884C9.15369 0.323246 9.19774 0.307527 9.24235 0.29377C9.36381 0.260513 9.49055 0.224484 9.612 0.199542C9.61976 0.197155 9.62801 0.197155 9.63577 0.199542C9.70447 0.180778 9.77411 0.165975 9.84435 0.155199C10.0107 0.119171 10.1744 0.094228 10.3407 0.0748281C10.5071 0.0554282 10.6708 0.0304855 10.8266 0.0193999C10.9824 0.00831424 11.1989 0 11.3784 0C11.558 0 11.7428 0 11.925 0.0193999C12.1071 0.0387998 12.2471 0.0443426 12.4108 0.0692853C12.5745 0.094228 12.7408 0.113628 12.9072 0.149656C12.9774 0.160432 13.0471 0.175235 13.1158 0.193999C13.1226 0.191668 13.13 0.191668 13.1369 0.193999C13.2689 0.224484 13.4009 0.25497 13.5329 0.29377C13.665 0.332569 13.826 0.379683 13.9739 0.429569L14.1719 0.498854C14.2828 0.540425 14.3937 0.584768 14.5046 0.634653L14.7026 0.715024C14.8109 0.76491 14.9218 0.820338 15.0327 0.875766C15.1436 0.931194 15.1964 0.953366 15.2782 1.00048C15.3601 1.04759 15.463 1.10025 15.5423 1.15568L15.8063 1.30811L16.0571 1.46885C16.1416 1.52428 16.2235 1.58525 16.3212 1.64345C16.4796 1.75985 16.6406 1.87902 16.7991 2.00373L16.8334 2.02867C16.9364 2.11459 17.0393 2.2005 17.1397 2.28919C17.24 2.37787 17.3007 2.43053 17.3826 2.50536C17.4749 2.58529 17.5631 2.6704 17.6466 2.76033C17.7338 2.83793 17.813 2.92384 17.8948 3.00975C17.9107 3.02035 17.9249 3.03344 17.9371 3.04855C18.1008 3.22038 18.2565 3.39498 18.4176 3.57512C18.481 3.64718 18.5391 3.71646 18.5945 3.78575C18.8374 4.06289 19.0698 4.37606 19.2916 4.69477C19.4394 4.91094 19.5873 5.12988 19.7272 5.35437C20.496 6.58289 21.1168 7.90661 21.5755 9.29532C21.6811 9.60017 21.7762 9.91611 21.8686 10.2293C21.9372 10.4649 22.0032 10.7004 22.0613 10.9388C22.093 11.069 22.1247 11.1993 22.1511 11.3295C22.1696 11.396 22.1828 11.4598 22.196 11.5235C22.2303 11.676 22.262 11.8284 22.291 11.9836C22.3544 12.2884 22.4046 12.5988 22.4521 12.9037C22.4521 12.9896 22.4785 13.07 22.489 13.1503C22.4996 13.2307 22.5102 13.264 22.5155 13.3194C22.5207 13.3748 22.5339 13.4358 22.5366 13.494C22.5577 13.6353 22.5735 13.7711 22.592 13.9153C22.5907 13.9365 22.5907 13.9578 22.592 13.979C22.592 14.015 22.592 14.0455 22.592 14.0788C22.6131 14.2645 22.629 14.4585 22.6448 14.6497C22.6607 14.8409 22.6712 14.9656 22.6818 15.1236V15.1402C22.6818 15.3037 22.7029 15.4756 22.7082 15.6391C22.7135 15.8026 22.7082 15.9495 22.7267 16.1102C22.7267 16.3541 22.7267 16.6008 22.7267 16.8446C22.7267 16.864 22.7267 16.8834 22.7267 16.9056C22.7267 17.0691 22.7267 17.2354 22.7267 17.3989C22.7267 17.5624 22.7267 17.7287 22.7108 17.895C22.7122 17.9199 22.7122 17.9449 22.7108 17.9698C22.6924 18.3052 22.6686 18.6433 22.6343 18.9786C22.6343 19.0645 22.6343 19.1449 22.6105 19.2281C22.5947 19.3999 22.5735 19.5689 22.5524 19.738C22.5313 19.9071 22.5128 20.0539 22.489 20.2036C22.489 20.2895 22.4653 20.3754 22.4521 20.453C22.4476 20.4941 22.4406 20.5348 22.431 20.575C22.4072 20.7329 22.3782 20.8937 22.3491 21.0544C22.2884 21.3898 22.2197 21.7196 22.1432 22.0383C22.0851 22.2988 22.0217 22.5538 21.9531 22.8087C21.8844 23.0637 21.8184 23.2937 21.7445 23.5348C21.3912 24.6926 20.9341 25.8127 20.3794 26.8799C20.2711 27.085 20.1629 27.2845 20.0467 27.4841C19.9305 27.6836 19.8144 27.8749 19.6955 28.0633C19.5767 28.2518 19.4526 28.4375 19.3259 28.6176C19.1067 28.928 18.8797 29.2329 18.6447 29.5128C18.5813 29.5931 18.5127 29.6735 18.4493 29.7483C18.3384 29.8786 18.2301 30.0033 18.1166 30.1225C18.0031 30.2416 17.8526 30.3996 17.7285 30.5271C17.4766 30.7773 17.2122 31.0132 16.9364 31.2338C16.8308 31.3225 16.7225 31.414 16.6116 31.4943L16.2868 31.7382C16.1179 31.8546 15.9515 31.9627 15.7825 32.0736C15.4409 32.2794 15.0882 32.4644 14.7264 32.6278C14.3723 32.7882 14.009 32.9252 13.6386 33.038C13.5435 33.0685 13.4511 33.0934 13.3587 33.1184L13.0762 33.1877L12.7936 33.2431C12.6986 33.2625 12.6009 33.2763 12.5058 33.293L12.218 33.329L11.9276 33.3567L11.6794 33.3733H11.6028C11.5183 33.3733 11.4312 33.3733 11.3388 33.3733C11.2464 33.3733 11.1725 33.3733 11.0906 33.3733C11.0555 33.3762 11.0201 33.3762 10.985 33.3733C10.9058 33.3733 10.8319 33.3733 10.7526 33.3733L10.4648 33.3456L10.1744 33.3096L9.92621 33.2569L9.66217 33.2015C9.56448 33.1821 9.46414 33.1572 9.36909 33.1322C9.27404 33.1073 9.18162 33.0823 9.10505 33.0519C9.01022 33.0268 8.91678 32.9963 8.82518 32.9604L8.60603 32.8856C8.49513 32.8468 8.38688 32.8024 8.27334 32.7553C8.1598 32.7082 8.10436 32.6805 8.0093 32.6472H7.99082C7.81392 32.5669 7.64493 32.4837 7.46275 32.3867C7.37562 32.3424 7.28848 32.2925 7.19871 32.2426L6.93468 32.0929C6.79474 32.007 6.65744 31.9184 6.52278 31.8158L6.22178 31.5996C6.0924 31.5054 5.95774 31.4001 5.83629 31.3003C5.58545 31.0897 5.3399 30.8735 5.09962 30.6435C4.97553 30.5243 4.85671 30.4052 4.7379 30.2804C4.58211 30.1114 4.42369 29.9396 4.27583 29.765C4.12797 29.5904 4.04084 29.4878 3.92466 29.3354C3.80849 29.183 3.66063 28.9807 3.51805 28.7811C3.05383 28.1256 2.63555 27.4355 2.26652 26.7164C2.19259 26.5778 2.1213 26.4393 2.05529 26.2924C1.92063 26.0152 1.79125 25.7215 1.66979 25.4277C1.60907 25.278 1.5457 25.1284 1.48761 24.976C1.41104 24.7764 1.33183 24.5713 1.26054 24.3663C1.18925 24.1612 1.09684 23.8923 1.02291 23.6485L0.925212 23.327C0.888247 23.2078 0.853922 23.0886 0.819597 22.9611L0.793194 22.7921C0.76415 22.684 0.737746 22.5732 0.708702 22.4623C0.679658 22.3514 0.62157 22.1713 0.587246 22.0133C0.502754 21.6392 0.426184 21.2623 0.357534 20.8798C0.288885 20.4974 0.228156 20.0678 0.177989 19.6576C0.162147 19.5246 0.146305 19.3805 0.130463 19.2475C0.0908575 18.8345 0.0565328 18.416 0.0354099 17.9892C0.0354099 17.8479 0.0354099 17.7121 0.014287 17.5624C-0.00683585 17.4128 0.014287 17.3296 0.014287 17.2077C0.0114824 17.1643 0.0114824 17.1208 0.014287 17.0774C0.014287 16.9527 0.014287 16.828 0.014287 16.7033C0.014287 16.5786 0.00108523 16.4539 0.00108523 16.3292ZM5.62506 25.1422C8.79349 29.8038 13.9607 29.8038 17.1318 25.1422C19.9358 21.0322 20.2923 14.3892 17.9555 9.69994V9.68054L17.9397 9.65006C17.7024 9.16838 17.4324 8.70528 17.1318 8.26435C13.9607 3.60284 8.79877 3.60284 5.62506 8.25881C2.45134 12.9148 2.45398 20.489 5.62506 25.1422Z" fill="#670B78"/>
<path d="M9.54231 19.3999C10.5615 20.8798 12.2012 20.8798 13.2019 19.3999C14.2026 17.92 14.2131 15.495 13.2019 14.0095C12.1906 12.524 10.5457 12.5296 9.53703 14.0095C8.52841 15.4894 8.53369 17.9089 9.54231 19.3999Z" fill="#670B78"/>
<path d="M33.9688 9.14561C34.002 9.10748 34.0373 9.07139 34.0744 9.03753C34.1721 8.93498 34.2672 8.83799 34.3675 8.73821L34.7239 8.38902C35.0804 8.04259 35.4421 7.70725 35.8039 7.38022C35.9227 7.27491 36.0441 7.16405 36.1656 7.06151C36.5273 6.74557 36.897 6.43517 37.264 6.13863C37.631 5.84209 37.9663 5.58435 38.3201 5.30721L38.7531 4.98849L39.0726 4.76124C39.1281 4.71967 39.1862 4.67809 39.2469 4.6393C39.3683 4.55338 39.4872 4.47301 39.606 4.39541L39.9228 4.18478C40.1684 4.02404 40.4086 3.87439 40.6516 3.72196C40.8945 3.56953 41.074 3.46976 41.2852 3.35059C41.441 3.25913 41.5994 3.17045 41.7579 3.07345C42.0721 2.90162 42.381 2.74088 42.6926 2.58291C42.8536 2.50254 43.0094 2.43048 43.1678 2.35565C43.9604 1.98542 44.7733 1.66521 45.6022 1.39674C45.832 1.32469 46.059 1.25817 46.2861 1.1972C46.5132 1.13623 46.7904 1.06417 47.0412 1.01152C47.2921 0.958859 47.5297 0.914517 47.7726 0.870174C48.0155 0.825832 48.2532 0.80366 48.4882 0.778718C48.7231 0.753775 48.9555 0.742689 49.1826 0.734375C49.4836 0.734375 49.7793 0.734375 50.0697 0.734375C50.1648 0.734375 50.2625 0.734375 50.3549 0.759318C50.4473 0.78426 50.5344 0.778718 50.6189 0.789803C50.7034 0.800889 50.8354 0.820289 50.9358 0.839689C51.0158 0.850617 51.0951 0.866348 51.1734 0.886803H51.2051C51.3301 0.907221 51.4537 0.936856 51.5747 0.975488C51.7426 1.01732 51.9075 1.07103 52.0685 1.13623C52.1926 1.18057 52.3193 1.22769 52.4355 1.28311C52.4818 1.30193 52.5268 1.32416 52.5702 1.34963C52.6741 1.3952 52.7755 1.44702 52.8738 1.50483C52.8798 1.50249 52.8863 1.50249 52.8923 1.50483C52.9493 1.52955 53.0033 1.56117 53.0533 1.59906C53.1809 1.67343 53.3035 1.75676 53.4204 1.84848C53.5381 1.93267 53.6501 2.02527 53.7557 2.12562C53.8808 2.2397 53.9982 2.36287 54.1068 2.49422C54.2192 2.60852 54.325 2.72976 54.4237 2.85728C54.514 2.96918 54.5978 3.08672 54.6745 3.20925C54.7649 3.33432 54.847 3.46581 54.9201 3.60279C54.9562 3.65528 54.9863 3.71201 55.0098 3.77184C55.011 3.77444 55.0116 3.77728 55.0116 3.78016C55.0116 3.78303 55.011 3.78587 55.0098 3.78847C55.0693 3.89899 55.1231 4.01278 55.1709 4.12936C55.229 4.25684 55.2792 4.3871 55.3293 4.5229C55.3478 4.58664 55.3716 4.64761 55.3927 4.70858C55.427 4.81389 55.4587 4.92198 55.4851 5.03561C55.5036 5.09935 55.5221 5.16864 55.5406 5.22961C55.567 5.34323 55.5881 5.45963 55.6118 5.57603C55.6356 5.69243 55.6462 5.74786 55.6594 5.85317C55.6726 5.95849 55.6884 6.05549 55.7016 6.1608C55.7148 6.26611 55.7254 6.35757 55.7333 6.45734C55.7412 6.55711 55.7492 6.65411 55.7544 6.75388C55.7597 6.85365 55.7544 6.95897 55.7676 7.06428C55.7676 7.26382 55.7676 7.46891 55.7676 7.67676C55.7691 7.69058 55.7691 7.70452 55.7676 7.71833C55.7676 7.8569 55.7518 7.99548 55.7412 8.13682C55.7307 8.27816 55.7254 8.35576 55.7148 8.47216C55.707 8.60307 55.6929 8.73349 55.6726 8.86293C55.6726 8.98487 55.6409 9.10958 55.6224 9.2343C55.6224 9.25093 55.6224 9.2731 55.6224 9.29527C55.5828 9.5447 55.5379 9.79135 55.4878 10.0463C55.4878 10.0463 55.4878 10.0463 55.4878 10.0602L55.4244 10.3373C55.3399 10.7336 55.2343 11.141 55.1075 11.554C55.0266 11.833 54.9386 12.1101 54.8435 12.3854C54.2891 13.9603 53.5887 15.4743 52.7523 16.9056C52.5702 17.2326 52.3721 17.5624 52.1715 17.8894C52.0236 18.1333 51.8731 18.3744 51.712 18.6155C51.6275 18.7458 51.5404 18.876 51.448 19.0035C51.4058 19.07 51.3609 19.1338 51.316 19.1975C51.2156 19.3472 51.1074 19.4996 51.0018 19.652C50.7906 19.9486 50.5714 20.2451 50.3522 20.5361L50.178 20.7689L50.0565 20.9297C50.0116 20.9851 49.972 21.0377 49.9271 21.0904L49.6182 21.4839L49.5707 21.5421L49.4968 21.6336C49.3568 21.8054 49.2116 21.9828 49.0638 22.1518C48.9159 22.3209 48.8261 22.429 48.702 22.5814L48.3192 23.047L47.9495 23.4572C47.7541 23.6706 47.5587 23.8812 47.3581 24.0863C47.3422 24.1057 47.3238 24.1196 47.3079 24.1362C47.1733 24.2775 47.0439 24.4133 46.9013 24.5519C46.7587 24.6905 46.6373 24.829 46.4894 24.9621C46.4703 24.9854 46.449 25.0067 46.426 25.0258C46.1462 25.3029 45.8557 25.5801 45.5626 25.8351C45.4913 25.9043 45.4201 25.9681 45.3461 26.0346L44.8867 26.4309L44.4722 26.7857C44.3956 26.8522 44.319 26.9159 44.2451 26.9741L44.1368 27.0628C43.9916 27.1847 43.8464 27.3039 43.6959 27.4203C43.3896 27.6642 43.0807 27.9025 42.7744 28.127C42.5289 28.3127 42.2833 28.4873 42.0351 28.6619C41.7869 28.8365 41.5598 28.9862 41.3222 29.1441C40.1899 29.8934 39.0064 30.5538 37.7815 31.1201C37.5491 31.2255 37.3194 31.3252 37.0871 31.4222C36.8547 31.5192 36.6303 31.6079 36.4059 31.6994C36.1814 31.7908 35.9544 31.8629 35.7326 31.9349C35.3471 32.0597 34.9616 32.1733 34.5919 32.262L34.283 32.3368C34.1114 32.3784 33.9424 32.4144 33.7787 32.4449C33.615 32.4754 33.3985 32.5169 33.2137 32.5419C32.8572 32.5945 32.5034 32.6306 32.1575 32.6444C32.0202 32.6444 31.8935 32.661 31.7509 32.661C31.6083 32.661 31.4869 32.661 31.3548 32.661C31.1595 32.661 30.9693 32.6389 30.7766 32.625C30.4103 32.5867 30.0469 32.5229 29.6888 32.4338C29.349 32.3464 29.0162 32.2315 28.6934 32.0901L28.4584 31.9793L28.2313 31.8573C28.1574 31.8158 28.0861 31.7742 28.0148 31.7243C27.9435 31.6744 27.8696 31.6329 27.8009 31.5857C27.7323 31.5386 27.6636 31.4832 27.5976 31.4305L27.3969 31.2726L27.2332 31.1257L27.1884 31.0786C27.1329 31.0287 27.0775 30.9705 27.0246 30.9151C26.9718 30.8596 26.9243 30.8097 26.8768 30.7515C26.8553 30.7305 26.8359 30.7073 26.8187 30.6823C26.7712 30.6324 26.7289 30.5797 26.684 30.5243L26.5335 30.3137C26.4834 30.2444 26.4332 30.1751 26.3857 30.1003C26.3382 30.0254 26.2959 29.9534 26.2537 29.8758C26.2114 29.7982 26.1718 29.7317 26.1322 29.6568C26.0926 29.582 26.0477 29.4906 26.0107 29.4102C25.9738 29.3298 25.9368 29.2467 25.9078 29.1663C25.8706 29.0837 25.8389 28.9985 25.8127 28.9113C25.789 28.8448 25.7626 28.7755 25.7414 28.709C25.7203 28.6425 25.6754 28.4956 25.6437 28.3848C25.6121 28.2739 25.6015 28.2129 25.5804 28.1298C25.5804 28.1298 25.5804 28.1132 25.5804 28.1104C25.5381 27.9302 25.5038 27.7501 25.4748 27.5561C25.4589 27.4619 25.4457 27.3649 25.4351 27.279C25.4246 27.193 25.4114 27.085 25.4008 27.0018C25.385 26.8411 25.3744 26.6776 25.3691 26.5085C25.3691 26.3838 25.3691 26.2619 25.3691 26.1344C25.3691 26.0069 25.3691 25.799 25.3691 25.6355C25.385 25.2946 25.4114 24.9565 25.451 24.6073C25.4748 24.4272 25.4985 24.2498 25.5276 24.053C25.5698 23.8092 25.6121 23.5653 25.6622 23.3186C25.7045 23.1246 25.752 22.9278 25.7969 22.7311C25.8418 22.5343 25.921 22.2544 25.9896 22.0133C26.2454 21.1432 26.5505 20.2899 26.9032 19.458C26.9718 19.2918 27.0431 19.1282 27.1197 18.962C27.2702 18.6349 27.4207 18.3107 27.587 17.9809L27.8511 17.482C27.9673 17.2631 28.0861 17.0386 28.2075 16.8169C28.329 16.5952 28.4927 16.3097 28.6458 16.0547L28.8491 15.7194C28.9231 15.5947 28.9996 15.47 29.0788 15.3425C29.1185 15.2815 29.1554 15.2178 29.1977 15.1596C29.2663 15.0459 29.3402 14.9351 29.4115 14.8242L29.7099 14.3725C29.9739 13.9984 30.2221 13.6325 30.502 13.2639C30.7819 12.8953 31.0802 12.4907 31.3812 12.111L31.6849 11.7009C31.9964 11.3212 32.3159 10.9443 32.6486 10.5673C32.7595 10.4454 32.8731 10.3179 32.9813 10.1932C33.0896 10.0685 33.1661 9.98812 33.2638 9.88835L33.3668 9.77472C33.4671 9.66664 33.5675 9.55855 33.6704 9.45324C33.7734 9.34793 33.8658 9.23984 33.9688 9.14561ZM30.2353 20.2313C28.3871 26.2147 31.5185 29.5072 37.2164 27.5672C42.2516 25.8517 47.8545 20.4253 50.2519 14.9434V14.9212V14.8852C50.4952 14.3346 50.7068 13.7691 50.8856 13.1919C52.7339 7.21116 49.5997 3.92427 43.8966 5.86703C38.1934 7.80979 32.0836 14.2367 30.2353 20.2313Z" fill="#670B78"/>
<path d="M37.2747 17.8201C36.6832 19.7296 37.6839 20.7799 39.4952 20.1619C41.3065 19.5439 43.2762 17.4847 43.865 15.578C44.4538 13.6713 43.4505 12.6264 41.6365 13.2472C39.8226 13.868 37.8661 15.9161 37.2747 17.8201Z" fill="#670B78"/>
<path d="M73.072 26.855C71.5852 26.8799 70.1069 26.6139 68.7128 26.0707C67.4668 25.5771 66.3463 24.788 65.4387 23.7649C64.5141 22.6925 63.8143 21.4283 63.3845 20.054C62.882 18.4286 62.6393 16.727 62.6664 15.0183C62.6354 13.2982 62.9159 11.5875 63.4928 9.97715C63.9953 8.59311 64.7617 7.33131 65.745 6.269C66.6963 5.25674 67.8434 4.47044 69.1089 3.96318C70.4312 3.43335 71.8362 3.16736 73.2516 3.17887C74.0667 3.17238 74.8806 3.24381 75.6834 3.39227C76.3251 3.5124 76.9598 3.67063 77.5844 3.86618C78.0455 4.00877 78.4935 4.19426 78.9231 4.42047C79.2769 4.61724 79.5251 4.75858 79.6703 4.84726L78.5244 8.21453C77.8539 7.81018 77.1369 7.49725 76.391 7.28333C75.4155 6.98205 74.403 6.83357 73.3862 6.84268C72.4889 6.83474 71.5982 7.00591 70.7617 7.34708C69.9568 7.67955 69.2345 8.19984 68.6494 8.86858C68.022 9.60799 67.5497 10.4776 67.2632 11.4211C66.912 12.5723 66.7434 13.7764 66.7642 14.9851C66.7589 16.1011 66.8948 17.2129 67.1682 18.2914C67.4004 19.233 67.8088 20.1166 68.3696 20.891C68.9132 21.6245 69.6193 22.2077 70.4264 22.5898C71.3687 23.0182 72.3888 23.2254 73.4153 23.1968C74.562 23.2299 75.7068 23.0804 76.8108 22.7534C77.5071 22.5346 78.1853 22.2565 78.8386 21.9219L79.8947 25.292C79.5748 25.5027 79.2351 25.6783 78.8808 25.8158C78.3841 26.0157 77.8772 26.1868 77.3626 26.3285C76.7181 26.5071 76.0626 26.6386 75.4008 26.722C74.628 26.8174 73.8502 26.8619 73.072 26.855Z" fill="#670B78"/>
<path d="M83.0137 26.3644V1.64063L86.7815 0.986572V9.45878C87.2547 9.29007 87.7392 9.15853 88.231 9.06524C88.7707 8.95769 89.3187 8.90295 89.8681 8.90172C90.9784 8.86603 92.0846 9.06002 93.1236 9.47264C93.9334 9.81625 94.646 10.3715 95.1937 11.0856C95.7332 11.8119 96.1112 12.6555 96.3 13.5549C96.5313 14.6025 96.6447 15.675 96.638 16.7504V26.3644H92.857V17.3712C92.8673 16.5877 92.8107 15.8049 92.688 15.0321C92.6024 14.475 92.4111 13.9416 92.1256 13.4635C91.8677 13.0625 91.4992 12.754 91.0694 12.5794C90.5505 12.3807 90.0004 12.2866 89.4482 12.3022C88.9364 12.3063 88.4261 12.3629 87.9248 12.4713C87.5393 12.5429 87.1577 12.6354 86.7815 12.7484V26.3644H83.0137Z" fill="#670B78"/>
<path d="M105.195 4.25693C105.209 4.58625 105.155 4.91495 105.037 5.22025C104.918 5.52555 104.738 5.80016 104.508 6.02509C104.069 6.45371 103.489 6.68799 102.89 6.67914C102.279 6.69214 101.687 6.45793 101.237 6.02509C101.007 5.80002 100.827 5.52532 100.709 5.22C100.591 4.91468 100.538 4.58607 100.553 4.25693C100.536 3.92305 100.589 3.58933 100.707 3.2788C100.825 2.96827 101.006 2.68833 101.237 2.45828C101.687 2.02544 102.279 1.79122 102.89 1.80422C103.489 1.79538 104.069 2.02966 104.508 2.45828C104.74 2.68819 104.921 2.96804 105.039 3.27856C105.158 3.58907 105.211 3.92286 105.195 4.25693ZM104.791 26.3645H101.02V9.2621H104.791V26.3645Z" fill="#670B78"/>
<path d="M114.856 23.2798C116.264 23.2798 117.292 23.0294 117.94 22.5287C118.255 22.2854 118.508 21.964 118.677 21.5932C118.846 21.2223 118.924 20.8135 118.906 20.4031C118.919 19.9114 118.806 19.4251 118.579 18.9952C118.338 18.5792 118.02 18.2183 117.644 17.9337C117.182 17.5835 116.686 17.2871 116.163 17.0496C115.582 16.7725 114.917 16.4954 114.169 16.2487C113.422 16.0021 112.701 15.6556 112.004 15.3175C111.331 14.9972 110.708 14.5721 110.156 14.0565C109.622 13.5509 109.187 12.9397 108.878 12.2579C108.537 11.4684 108.372 10.6079 108.395 9.74144C108.395 7.69059 109.07 6.08225 110.42 4.91641C111.77 3.75057 113.609 3.16765 115.936 3.16765C117.15 3.14951 118.362 3.30901 119.535 3.64156C120.397 3.87843 121.229 4.22464 122.011 4.67253L120.797 7.99822C120.066 7.57599 119.286 7.25727 118.476 7.0504C117.624 6.83212 116.749 6.72232 115.872 6.72337C114.816 6.72337 113.991 6.95247 113.396 7.41068C113.106 7.6309 112.872 7.9237 112.718 8.26249C112.563 8.60128 112.491 8.97533 112.509 9.35067C112.496 9.80108 112.598 10.2468 112.804 10.6421C113.018 11.0215 113.305 11.3499 113.647 11.6066C114.045 11.9139 114.472 12.1776 114.922 12.3937C115.41 12.632 115.946 12.862 116.527 13.0782C117.543 13.4718 118.452 13.8699 119.255 14.2727C119.997 14.6379 120.681 15.1233 121.28 15.7111C121.827 16.2652 122.257 16.9337 122.542 17.6732C122.852 18.5464 123 19.4741 122.978 20.4058C122.978 22.4548 122.287 24.0401 120.905 25.1616C119.523 26.2831 117.507 26.8475 114.856 26.8549C114.038 26.8601 113.22 26.7999 112.411 26.6748C111.748 26.5728 111.091 26.4256 110.446 26.2341C109.944 26.0801 109.45 25.895 108.968 25.6798C108.624 25.5348 108.291 25.3654 107.97 25.1727L109.124 21.8054C109.851 22.2057 110.612 22.5342 111.397 22.7865C112.518 23.1391 113.685 23.3056 114.856 23.2798Z" fill="#670B78"/>
<path d="M140.774 17.8286C140.786 19.048 140.624 20.2624 140.294 21.4314C140.005 22.4532 139.534 23.4079 138.905 24.2444C138.299 25.0323 137.526 25.6598 136.647 26.0763C135.682 26.5253 134.635 26.7485 133.579 26.7304C132.865 26.7376 132.154 26.6387 131.467 26.4366C130.918 26.2778 130.387 26.0585 129.883 25.7825V32.4256H126.102V9.81642C126.871 9.60025 127.815 9.39332 128.935 9.19562C130.11 8.99493 131.298 8.89668 132.489 8.90185C133.667 8.88253 134.839 9.09303 135.945 9.52265C136.925 9.91191 137.814 10.5199 138.548 11.3047C139.284 12.1087 139.848 13.0675 140.204 14.1177C140.601 15.3096 140.794 16.566 140.774 17.8286ZM136.911 17.8951C136.911 16.1306 136.533 14.7569 135.776 13.774C135.019 12.7911 133.798 12.3005 132.114 12.3024C131.76 12.3024 131.393 12.319 131.007 12.3523C130.622 12.3847 130.241 12.4561 129.869 12.5657V22.3432C130.281 22.6233 130.725 22.8486 131.19 23.0139C131.755 23.224 132.351 23.3291 132.951 23.3243C134.322 23.3243 135.323 22.8337 135.955 21.8527C136.587 20.8716 136.906 19.5524 136.911 17.8951Z" fill="#670B78"/>
<path d="M143.609 17.895C143.584 16.5454 143.801 15.2029 144.248 13.9374C144.626 12.8836 145.204 11.921 145.946 11.1078C146.639 10.3732 147.471 9.79923 148.388 9.4228C149.28 9.04493 150.231 8.85017 151.193 8.84912C153.435 8.84912 155.185 9.57985 156.442 11.0413C157.698 12.5028 158.327 14.6829 158.327 17.5818C158.327 17.8008 158.327 18.0447 158.311 18.3163C158.295 18.5879 158.285 18.8345 158.263 19.0535H147.504C147.61 20.4392 148.069 21.4895 148.89 22.2434C149.711 22.9972 150.899 23.3713 152.457 23.3713C153.3 23.374 154.141 23.281 154.966 23.0942C155.578 22.9654 156.178 22.7799 156.758 22.5399L157.257 25.7741C156.98 25.9113 156.693 26.0261 156.399 26.1178C155.989 26.2487 155.573 26.3578 155.153 26.4448C154.686 26.5418 154.181 26.625 153.643 26.6887C153.094 26.7557 152.542 26.789 151.99 26.7885C150.714 26.8165 149.445 26.5888 148.251 26.1178C147.254 25.7147 146.359 25.0766 145.635 24.2526C144.941 23.4399 144.42 22.4808 144.108 21.4397C143.766 20.2929 143.598 19.0967 143.609 17.895ZM154.546 16.1296C154.548 15.6027 154.474 15.0785 154.327 14.5749C154.195 14.1102 153.978 13.677 153.688 13.3C153.409 12.9405 153.058 12.65 152.661 12.4492C152.206 12.2319 151.71 12.1258 151.211 12.1388C150.685 12.1225 150.162 12.2364 149.685 12.4714C149.262 12.6902 148.886 12.9965 148.579 13.3721C148.274 13.7491 148.037 14.1811 147.879 14.6469C147.714 15.1229 147.599 15.6164 147.536 16.1185L154.546 16.1296Z" fill="#670B78"/>
<path d="M161.817 9.81636C162.751 9.55364 163.698 9.34638 164.653 9.19557C165.931 8.99021 167.223 8.89198 168.516 8.9018C169.652 8.86761 170.784 9.06139 171.851 9.47271C172.681 9.81038 173.416 10.3657 173.984 11.0857C174.534 11.8166 174.918 12.6697 175.106 13.5799C175.333 14.6263 175.443 15.6968 175.434 16.7698V26.3645H171.663V17.3712C171.673 16.5877 171.615 15.8049 171.492 15.0322C171.408 14.4748 171.218 13.9411 170.932 13.4635C170.674 13.0627 170.305 12.7543 169.876 12.5795C169.351 12.382 168.796 12.2881 168.239 12.3023C167.739 12.3037 167.24 12.337 166.744 12.4021C166.216 12.4658 165.839 12.5213 165.59 12.5656V26.3645H161.817V9.81636Z" fill="#670B78"/>
<path d="M193.011 25.8406C192.086 26.1235 191.144 26.3419 190.191 26.4946C189.012 26.6958 187.819 26.795 186.624 26.7912C185.444 26.8113 184.271 26.5998 183.165 26.1676C182.18 25.7837 181.289 25.1761 180.554 24.3884C179.819 23.5855 179.255 22.6275 178.901 21.5782C178.503 20.3852 178.308 19.1282 178.325 17.8645C178.311 16.6202 178.474 15.3806 178.808 14.1868C179.097 13.1556 179.579 12.1954 180.226 11.3627C180.842 10.5834 181.62 9.96239 182.5 9.54746C183.472 9.10608 184.524 8.88873 185.584 8.91004C186.29 8.89746 186.994 8.99649 187.672 9.20381C188.209 9.3732 188.73 9.59207 189.23 9.85786V1.64063L193.011 0.986572V25.8406ZM182.185 17.7647C182.185 19.5088 182.58 20.877 183.368 21.8692C184.157 22.8613 185.247 23.3574 186.64 23.3574C187.156 23.3623 187.672 23.3346 188.184 23.2743C188.535 23.2343 188.883 23.1742 189.227 23.0941V13.2833C188.815 13.0032 188.372 12.7779 187.907 12.6126C187.341 12.4036 186.746 12.2985 186.146 12.3022C184.773 12.3022 183.771 12.7928 183.139 13.7739C182.507 14.7549 182.189 16.0852 182.185 17.7647Z" fill="#670B78"/>
</g>
<defs>
<clipPath id="clip0_323_7321">
<rect width="193" height="33.4038" fill="white"/>
</clipPath>
</defs>
</svg>
