<svg width="13" height="13" viewBox="0 0 13 13" fill="none" xmlns="http://www.w3.org/2000/svg">
<path d="M11.6569 0.843111C12.4379 1.62416 12.4379 2.89049 11.6569 3.67154L4.27044 11.058C3.95004 11.3784 3.54859 11.6057 3.10901 11.7156L0.818012 12.2883C0.451822 12.3799 0.120125 12.0482 0.211673 11.682L0.784423 9.391C0.894318 8.95142 1.12161 8.54997 1.44201 8.22957L8.82847 0.843111C9.60952 0.0620621 10.8759 0.0620621 11.6569 0.843111ZM8.12129 2.96432L2.14912 8.93668C1.95688 9.12891 1.8205 9.36979 1.75457 9.63353L1.38393 11.1161L2.86648 10.7454C3.13022 10.6795 3.37109 10.5431 3.56333 10.3509L9.53529 4.37832L8.12129 2.96432ZM9.53558 1.55022L8.82829 2.25732L10.2423 3.67132L10.9498 2.96443C11.3403 2.57391 11.3403 1.94074 10.9498 1.55022C10.5593 1.15969 9.9261 1.15969 9.53558 1.55022Z" fill="#212121"/>
</svg>
